<svg xmlns="http://www.w3.org/2000/svg" viewBox="0 0 32 32">
  <rect width="32" height="32" rx="6" fill="#ffffff"/>
  <circle cx="8" cy="6" r="4.5" fill="#777"/>
  <circle cx="24" cy="6" r="4.5" fill="#777"/>
  <circle cx="8" cy="6" r="2.5" fill="#444"/>
  <circle cx="24" cy="6" r="2.5" fill="#444"/>
  <circle cx="16" cy="18" r="11" fill="#f0ece4" stroke="#c8c2b6" stroke-width="0.3"/>
  <ellipse cx="11" cy="15.5" rx="4" ry="4.5" fill="#222"/>
  <ellipse cx="21" cy="15.5" rx="4" ry="4.5" fill="#222"/>
  <circle cx="10.5" cy="14.5" r="2" fill="#fff"/>
  <circle cx="21.5" cy="14.5" r="2" fill="#fff"/>
  <circle cx="11" cy="14.8" r="1.1" fill="#111"/>
  <circle cx="22" cy="14.8" r="1.1" fill="#111"/>
  <circle cx="11.5" cy="14" r="0.5" fill="#fff"/>
  <circle cx="22.5" cy="14" r="0.5" fill="#fff"/>
  <ellipse cx="16" cy="20" rx="2" ry="1.4" fill="#222"/>
  <path d="M14.2 22 Q16 23.5 17.8 22" fill="none" stroke="#556" stroke-width="0.8" stroke-linecap="round"/>
  <circle cx="6.5" cy="20.5" r="2.2" fill="#e8a0a0" opacity="0.3"/>
  <circle cx="25.5" cy="20.5" r="2.2" fill="#e8a0a0" opacity="0.3"/>
</svg>
